# AST/ASF file generated using VICON BodyLanguage
# -----------------------------------------------
:version 1.10
:name VICON
:units
  mass 1.0
  length 0.45
  angle deg
:documentation
   .ast/.asf automatically generated from VICON data using
   VICON BodyBuilder and BodyLanguage model FoxedUp or BRILLIANT.MOD
:root
   order TX TY TZ RX RY RZ
   axis XYZ
   position 0 0 0  
   orientation 0 0 0 
:bonedata
  begin
     id 1 
     name lhipjoint
     direction 0.78388 -0.462562 0.414208 
     length 3.01181 
     axis 0 0 0  XYZ
  end
  begin
     id 2 
     name lfemur
     direction 0.34202 -0.939693 0  
     length 6.04673  
     axis 0 0 20  XYZ
    dof rx ry rz
    limits (-160.0 20.0)
           (-70.0 70.0)
           (-60.0 70.0)
  end
  begin
     id 3 
     name ltibia
     direction 0.34202 -0.939693 0   
     length 7.211   
     axis 0 0 20   XYZ
    dof rx
    limits (-10.0 170.0)
  end
  begin
     id 4 
     name lfoot
     direction 0.121887 -0.334882 0.934344   
     length 2.13567   
     axis -90 7.62852e-016 20   XYZ
    dof rx rz
    limits (-45.0 90.0)
           (-70.0 20.0)
  end
  begin
     id 5 
     name ltoes
     direction 1.53555e-011 -4.2179e-011 1   
     length 1.05957   
     axis -90 7.62852e-016 20   XYZ
    dof rx
    limits (-90.0 20.0)
  end
  begin
     id 6 
     name rhipjoint
     direction -0.769387 -0.475875 0.426129   
     length 2.92756  
     axis 0 0 0  XYZ 
  end
  begin
     id 7 
     name rfemur
     direction -0.34202 -0.939693 0   
     length 6.35468   
     axis 0 0 -20   XYZ
    dof rx ry rz
    limits (-160.0 20.0)
           (-70.0 70.0)
           (-70.0 60.0)
  end
  begin
     id 8 
     name rtibia
     direction -0.34202 -0.939693 0   
     length 7.37886   
     axis 0 0 -20   XYZ
    dof rx
    limits (-10.0 170.0)
 end
 begin
     id 9 
     name rfoot
     direction -0.101763 -0.279592 0.954711   
     length 2.21478  
     axis -90 -7.62852e-016 -20   XYZ
    dof rx rz
    limits (-45.0 90.0)
           (-20.0 70.0)
  end
  begin
     id 10 
     name rtoes
     direction -1.53494e-011 -4.21851e-011 1   
     length 1.10506   
     axis -90 -7.62852e-016 -20   XYZ
    dof rx
    limits (-90.0 20.0)
  end
  begin
     id 11 
     name lowerback
     direction 0.00747405 0.999267 0.0375481   
     length 2.13259   
     axis 0 0 0   XYZ
    dof rx ry rz
    limits (-20.0 45.0)
           (-30.0 30.0)
           (-30.0 30.0)
  end
  begin
     id 12 
     name upperback
     direction 0.00661626 0.996177 0.0871029   
     length 2.10528   
     axis 0 0 0   XYZ
    dof rx ry rz
    limits (-20.0 45.0)
           (-30.0 30.0)
           (-30.0 30.0)
  end
  begin
     id 13 
     name thorax
     direction 0.00320659 0.997679 0.0680167   
     length 2.11338   
     axis 0 0 0   XYZ
    dof rx ry rz
    limits (-20.0 45.0)
           (-30.0 30.0)
           (-30.0 30.0)
  end
  begin
     id 14 
     name lowerneck
     direction 0.0374841 0.973033 0.227602   
     length 1.42765   
     axis 0 0 0   XYZ
    dof rx ry rz
    limits (-20.0 45.0)
           (-30.0 30.0)
           (-30.0 30.0)
  end
  begin
     id 15 
     name upperneck
     direction 0.00481585 0.989155 -0.146795   
     length 1.47593   
     axis 0 0 0   XYZ
    dof rx ry rz
    limits (-20.0 45.0)
           (-30.0 30.0)
           (-30.0 30.0)
  end
  begin
     id 16
     name head
     direction -0.00292522 0.997206 -0.0746423  
     length 1.48116  
     axis 0 0 0   XYZ
    dof rx ry rz
    limits (-20.0 45.0)
           (-30.0 30.0)
           (-30.0 30.0)
  end
  begin
     id 17 
     name lclavicle
     direction 0.951444 0.305606 0.0368784  
     length 3.01855  
     axis 0 0 0   XYZ
    dof ry rz
    limits (-20.0 10.0)
           (0.0 20.0)
  end
  begin
     id 18 
     name lhumerus
     direction 1 -4.48977e-011 2.61664e-027   
     length 5.52731   
     axis 180 -30 -90   XYZ
    dof rx ry rz
    limits (-60.0 90.0)
           (-90.0 90.0)
           (-90.0 90.0)
  end
  begin
     id 19
     name lradius
     direction 1 -4.48944e-011 8.22157e-027   
     length 3.11059   
     axis 180 -30 -90   XYZ
    dof rx
    limits (-10.0 170.0)
  end
  begin
     id 20
     name lwrist
     direction 1 -4.48976e-011 1.5779e-026   
     length 1.5553   
     axis -1.15221e-014 90 90   XYZ
    dof ry
    limits (-180.0 0.0)
 end
  begin
     id 21 
     name lhand
     direction 1 -4.49025e-011 3.1558e-026   
     length 0.419626   
     axis -2.01367e-014 90 90   XYZ
    dof rx rz
    limits (-90.0 90.0)
           (-45.0 45.0)
  end
  begin
     id 22 
     name lfingers
     direction 1 -4.4904e-011 6.31161e-026   
     length 0.338313   
     axis -4.02734e-014 90 90   XYZ
    dof rx
    limits (0.0 90.0)
  end
  begin
     id 23
     name lthumb
     direction 0.707107 -6.35004e-011 0.707107   
     length 0.485752   
     axis -90 45 2.85299e-015   XYZ
    dof rx rz
    limits (-45.0 45.0)
           (-45.0 45.0)
  end
  begin
     id 24 
     name rclavicle
     direction -0.968876 0.223791 0.105816   
     length 3.04177  
     axis 0 0 0   XYZ 
    dof ry rz
    limits (-10.0 20.0)
           (-20.0 0.0)
  end
  begin
     id 25 
     name rhumerus
     direction -1 -4.48962e-011 -1.01384e-027  
     length 5.25396   
     axis 180 30 90   XYZ
    dof rx ry rz
    limits (-90.0 60.0)
           (-90.0 90.0)
           (-90.0 90.0)
  end
  begin
     id 26 
     name rradius
     direction -1 -4.48955e-011 8.88542e-027   
     length 3.10567   
     axis 180 30 90   XYZ
    dof rx
    limits (-10.0 170.0)
  end
  begin
     id 27 
     name rwrist
     direction -1 -4.48994e-011 1.5779e-026   
     length 1.55283   
     axis -1.15221e-014 -90 -90   XYZ
    dof ry
    limits (-180.0 0.0)
  end
  begin
     id 28
     name rhand
     direction -1 -4.48891e-011 3.1558e-026   
     length 0.498676   
     axis -2.01367e-014 -90 -90   XYZ
    dof rx rz
    limits (-90.0 90.0)
           (-45.0 45.0)
  end
  begin
     id 29
     name rfingers
     direction -1 -4.48972e-011 6.31161e-026   
     length 0.402045   
     axis -4.02734e-014 -90 -90   XYZ
    dof rx
    limits (0.0 90.0)
  end
  begin
     id 30
     name rthumb
     direction -0.707107 -6.34849e-011 0.707107   
     length 0.577259   
     axis -90 -45 -2.85299e-015   XYZ
    dof rx rz
    limits (-45.0 45.0)
           (-45.0 45.0)
  end
:hierarchy
  begin
    root lhipjoint rhipjoint lowerback
    lhipjoint lfemur
    lfemur ltibia
    ltibia lfoot
    lfoot ltoes
    rhipjoint rfemur
    rfemur rtibia
    rtibia rfoot
    rfoot rtoes
    lowerback upperback
    upperback thorax
    thorax lowerneck lclavicle rclavicle
    lowerneck upperneck
    upperneck head
    lclavicle lhumerus
    lhumerus lradius
    lradius lwrist
    lwrist lhand lthumb
    lhand lfingers
    rclavicle rhumerus
    rhumerus rradius
    rradius rwrist
    rwrist rhand rthumb
    rhand rfingers
  end

#!OML:ASF H:\Pregnant\Project 1\Capture day 1\Session 1\femalepreg.ASF
:FULLY-SPECIFIED
:DEGREES
48
root 10.4212 14.4225 38.7965 -164.976 -1.7858 164.073
lowerback -16.2705 2.20008 -13.0347
upperback -1.38203 4.66137 -8.36453
thorax 7.25276 1.41589 -0.811525
lowerneck -11.0394 7.23038 7.05973
upperneck 32.9852 6.25571 0.0415755
head 13.1669 2.73073 -0.504038
rclavicle 8.44835e-016 1.66979e-014
rhumerus -33.1235 22.0582 -99.7617
rradius 29.6942
rwrist -2.33457
rhand -18.2229 -20.3957
rfingers 7.12502
rthumb 8.05517 -50.2222
lclavicle 8.44835e-016 1.66979e-014
lhumerus -29.3361 -23.2403 84.0654
lradius 26.461
lwrist 45.7435
lhand -28.5078 3.27915
lfingers 7.12502
lthumb -1.87634 33.2506
rfemur -48.3635 12.0959 -5.65958
rtibia 65.3751
rfoot -22.0787 -32.6994
rtoes -1.73707
lfemur -16.284 -2.00385 -45.5151
ltibia 8.62813
lfoot -7.46889 -3.12479
ltoes -16.8468
49
root 10.4237 14.4301 38.7973 -164.926 -1.6271 164.2
lowerback -16.201 2.18032 -12.9437
upperback -1.34608 4.62478 -8.29507
thorax 7.25936 1.40759 -0.792864
lowerneck -11.0431 7.19306 6.96518
upperneck 32.9834 6.19881 0.0965717
head 13.1571 2.69954 -0.475872
rclavicle 2.80286e-014 -1.82882e-014
rhumerus -33.003 22.0423 -99.6688
rradius 29.6003
rwrist -2.29054
rhand -18.2927 -20.413
rfingers 7.12502
rthumb 7.98784 -50.2421
lclavicle 2.80286e-014 -1.82882e-014
lhumerus -29.3668 -23.348 84.2056
lradius 26.4831
lwrist 45.5254
lhand -28.5068 3.38837
lfingers 7.12502
lthumb -1.87541 33.3599
rfemur -48.4517 11.9706 -5.52223
rtibia 65.2186
rfoot -21.9737 -32.4526
rtoes -1.98723
lfemur -16.362 -1.85775 -45.4249
ltibia 8.57098
lfoot -7.4716 -3.10876
ltoes -17.2248
50
root 10.4261 14.4378 38.7978 -164.88 -1.47321 164.325
lowerback -16.132 2.15389 -12.8534
upperback -1.30155 4.58184 -8.22087
thorax 7.27575 1.39601 -0.770047
lowerneck -11.0664 7.16141 6.86986
upperneck 32.9854 6.15255 0.145405
head 13.1539 2.67261 -0.447624
rclavicle 5.37713e-014 -3.26007e-014
rhumerus -32.8714 22.0363 -99.5653
rradius 29.5167
rwrist -2.24551
rhand -18.3523 -20.4626
rfingers 7.12502
rthumb 7.93036 -50.2938
lclavicle 5.37713e-014 -3.26007e-014
lhumerus -29.386 -23.4545 84.3474
lradius 26.5036
lwrist 45.3168
lhand -28.4736 3.49078
lfingers 7.12502
lthumb -1.84332 33.4626
rfemur -48.5267 11.8272 -5.37969
rtibia 65.0581
rfoot -21.8621 -32.192
rtoes -2.26952
lfemur -16.4334 -1.71343 -45.3342
ltibia 8.51867
lfoot -7.47625 -3.09292
ltoes -17.5712
51
root 10.4286 14.4455 38.7981 -164.833 -1.32704 164.449
lowerback -16.0656 2.12021 -12.766
upperback -1.24982 4.53199 -8.14318
thorax 7.3016 1.38066 -0.743316
lowerneck -11.0998 7.13393 6.7767
upperneck 32.9815 6.11508 0.189622
head 13.151 2.64999 -0.419761
rclavicle 2.23633e-014 -6.59965e-014
rhumerus -32.7285 22.0327 -99.4505
rradius 29.4466
rwrist -2.19288
rhand -18.4077 -20.5202
rfingers 7.12502
rthumb 7.8768 -50.3535
lclavicle 2.23633e-014 -6.59965e-014
lhumerus -29.3921 -23.5619 84.488
lradius 26.5211
lwrist 45.1231
lhand -28.406 3.58522
lfingers 7.12502
lthumb -1.77805 33.5576
rfemur -48.5964 11.6632 -5.23238
rtibia 64.8982
rfoot -21.7478 -31.9195
rtoes -2.58435
lfemur -16.5044 -1.57557 -45.2426
ltibia 8.47202
lfoot -7.48188 -3.07757
ltoes -17.8869
52
root 10.4315 14.4529 38.7989 -164.782 -1.19093 164.572
lowerback -15.9993 2.09017 -12.6698
upperback -1.19886 4.48456 -8.07687
thorax 7.32796 1.36622 -0.733393
lowerneck -11.1238 7.10401 6.7076
upperneck 32.9646 6.06985 0.234084
head 13.1416 2.62751 -0.397223
rclavicle -3.01656e-014 1.26427e-013
rhumerus -32.5841 21.9964 -99.3401
rradius 29.3883
rwrist -2.13391
rhand -18.4634 -20.5786
rfingers 7.12502
rthumb 7.82307 -50.4138
lclavicle -3.01656e-014 1.26427e-013
lhumerus -29.396 -23.7147 84.6228
lradius 26.54
lwrist 44.9539
lhand -28.3297 3.69414
lfingers 7.12502
lthumb -1.70435 33.6671
rfemur -48.6717 11.4762 -5.07913
rtibia 64.7426
rfoot -21.6275 -31.6357
rtoes -2.93145
lfemur -16.5745 -1.44828 -45.1483
ltibia 8.41426
lfoot -7.47678 -3.06614
ltoes -18.1817
53
root 10.4344 14.4602 38.7995 -164.728 -1.06005 164.685
lowerback -15.9301 2.06436 -12.5741
upperback -1.1526 4.43988 -8.02428
thorax 7.34813 1.35253 -0.737808
lowerneck -11.136 7.06882 6.65431
upperneck 32.9425 6.01095 0.284582
head 13.1279 2.60155 -0.377463
rclavicle -2.22639e-014 9.38264e-014
rhumerus -32.4487 21.9295 -99.2391
rradius 29.3398
rwrist -2.07425
rhand -18.5128 -20.6493
rfingers 7.12502
rthumb 7.77537 -50.4863
lclavicle -2.22639e-014 9.38264e-014
lhumerus -29.4086 -23.9012 84.7528
lradius 26.5614
lwrist 44.8009
lhand -28.2584 3.79557
lfingers 7.12502
lthumb -1.63547 33.769
rfemur -48.7464 11.2667 -4.9322
rtibia 64.5939
rfoot -21.5154 -31.3373
rtoes -3.2998
lfemur -16.6355 -1.32874 -45.064
ltibia 8.34339
lfoot -7.46575 -3.05606
ltoes -18.4717
54
root 10.4374 14.4672 38.7997 -164.676 -0.930937 164.785
lowerback -15.8641 2.03633 -12.4912
upperback -1.10346 4.39467 -7.97555
thorax 7.37245 1.33739 -0.739749
lowerneck -11.1372 7.03121 6.60468
upperneck 32.9129 5.94918 0.333057
head 13.1087 2.57456 -0.359902
rclavicle -1.81888e-014 -1.59028e-015
rhumerus -32.3159 21.8459 -99.1329
rradius 29.3051
rwrist -1.99958
rhand -18.5896 -20.6906
rfingers 7.12502
rthumb 7.70126 -50.5303
lclavicle -1.81888e-014 -1.59028e-015
lhumerus -29.4237 -24.096 84.8819
lradius 26.5887
lwrist 44.6553
lhand -28.2129 3.92155
lfingers 7.12502
lthumb -1.59153 33.8954
rfemur -48.8186 11.0375 -4.79389
rtibia 64.4537
rfoot -21.4114 -31.0217
rtoes -3.68646
lfemur -16.6815 -1.21284 -44.9931
ltibia 8.25663
lfoot -7.44954 -3.04757
ltoes -18.7703
55
root 10.4404 14.4739 38.7994 -164.628 -0.80096 164.876
lowerback -15.7982 2.00296 -12.4227
upperback -1.05072 4.34523 -7.92291
thorax 7.39951 1.31951 -0.730617
lowerneck -11.1462 6.9959 6.55653
upperneck 32.8827 5.89212 0.377961
head 13.0915 2.54967 -0.342961
rclavicle 3.06128e-014 -3.81667e-014
rhumerus -32.1865 21.7706 -99.0197
rradius 29.2826
rwrist -1.9297
rhand -18.7886 -20.6919
rfingers 7.12502
rthumb 7.5092 -50.5387
lclavicle 3.06128e-014 -3.81667e-014
lhumerus -29.434 -24.2765 85.0129
lradius 26.6149
lwrist 44.5002
lhand -28.1839 4.03316
lfingers 7.12502
lthumb -1.56348 34.0072
rfemur -48.8882 10.7965 -4.66059
rtibia 64.3211
rfoot -21.3179 -30.6915
rtoes -4.08838
lfemur -16.7135 -1.09637 -44.9316
ltibia 8.15736
lfoot -7.42909 -3.04046
ltoes -19.0628
56
root 10.4437 14.4804 38.799 -164.582 -0.671613 164.961
lowerback -15.7285 1.95709 -12.3799
upperback -0.99423 4.28401 -7.85359
thorax 7.42613 1.29553 -0.691937
lowerneck -11.1705 6.96628 6.4929
upperneck 32.8562 5.84983 0.416567
head 13.079 2.52893 -0.323121
rclavicle -7.15625e-015 4.69132e-014
rhumerus -32.0598 21.7225 -98.8857
rradius 29.2743
rwrist -1.85883
rhand -19.0935 -20.6582
rfingers 7.12502
rthumb 7.21491 -50.5152
lclavicle -7.15625e-015 4.69132e-014
lhumerus -29.441 -24.4178 85.1571
lradius 26.6403
lwrist 44.3141
lhand -28.2011 4.16547
lfingers 7.12502
lthumb -1.58012 34.1394
rfemur -48.9589 10.5438 -4.52882
rtibia 64.197
rfoot -21.2294 -30.3503
rtoes -4.50191
lfemur -16.7388 -0.980493 -44.8757
ltibia 8.0525
lfoot -7.40529 -3.03443
ltoes -19.3488
57
root 10.4474 14.4864 38.7989 -164.539 -0.543846 165.045
lowerback -15.6422 1.91222 -12.3447
upperback -0.945173 4.22072 -7.78264
thorax 7.43457 1.27116 -0.648031
lowerneck -11.1787 6.93039 6.42284
upperneck 32.8274 5.79646 0.464443
head 13.0611 2.50317 -0.300888
rclavicle -2.77305e-014 7.39479e-014
rhumerus -31.9479 21.6554 -98.7462
rradius 29.2764
rwrist -1.7845
rhand -19.5006 -20.5704
rfingers 7.12502
rthumb 6.82191 -50.4405
lclavicle -2.77305e-014 7.39479e-014
lhumerus -29.4601 -24.5597 85.3075
lradius 26.6652
lwrist 44.1075
lhand -28.2413 4.30339
lfingers 7.12502
lthumb -1.61895 34.277
rfemur -49.0344 10.2856 -4.39138
rtibia 64.0812
rfoot -21.1409 -30.0042
rtoes -4.92249
lfemur -16.7628 -0.864034 -44.818
ltibia 7.94864
lfoot -7.37954 -3.0303
ltoes -19.6238
58
root 10.4515 14.4922 38.7987 -164.495 -0.419709 165.123
lowerback -15.5478 1.86586 -12.322
upperback -0.90159 4.15444 -7.71126
thorax 7.43157 1.24521 -0.597706
lowerneck -11.1896 6.89477 6.36032
upperneck 32.806 5.73978 0.513485
head 13.0474 2.47662 -0.279892
rclavicle -3.37934e-015 -1.35174e-014
rhumerus -31.8454 21.5792 -98.6007
rradius 29.2871
rwrist -1.71568
rhand -19.8952 -20.4769
rfingers 7.12502
rthumb 6.44101 -50.3589
lclavicle -3.37934e-015 -1.35174e-014
lhumerus -29.4878 -24.7026 85.463
lradius 26.6883
lwrist 43.8823
lhand -28.2836 4.45456
lfingers 7.12502
lthumb -1.65982 34.4278
rfemur -49.1139 10.0153 -4.25402
rtibia 63.975
rfoot -21.0533 -29.6551
rtoes -5.35134
lfemur -16.7945 -0.752003 -44.7642
ltibia 7.85998
lfoot -7.35876 -3.02391
ltoes -19.8857
